<svg xmlns="http://www.w3.org/2000/svg" width="19" height="19" viewBox="0 0 19 19"><g><g><g><path fill="#fff" d="M17.079 2.126C15.499.653 12.945-.06 9.487.004 6 .069 3.668.651 2.15 1.835.683 2.98 0 4.655 0 7.108v2.503c0 2.895 1.632 6.077 4.75 6.56.36.055.7-.178.758-.52.058-.342-.186-.665-.546-.72-2.365-.366-3.641-3.014-3.641-5.32V7.108c0-3.516 1.37-5.721 8.192-5.849 3.092-.058 5.324.536 6.641 1.763 1.026.957 1.525 2.293 1.525 4.086v2.503c0 3.79-1.789 5.461-6.378 5.953H8.047a.678.678 0 0 0-.467.184l-2.293 2.18a.606.606 0 0 0 0 .888.676.676 0 0 0 .467.184.676.676 0 0 0 .467-.184l2.1-1.996h3.017a.683.683 0 0 0 .073-.004c2.626-.277 4.425-.927 5.66-2.045C18.368 13.595 19 11.907 19 9.611V7.108c0-2.118-.646-3.794-1.921-4.982z"/></g><g><path fill="#fff" d="M9.751 3.928c1.13 0 2.192.42 2.991 1.183a3.921 3.921 0 0 1 1.24 2.855c0 .37.313.67.7.67.387 0 .701-.3.701-.67 0-1.436-.585-2.786-1.65-3.801A5.732 5.732 0 0 0 9.752 2.59c-.387 0-.701.3-.701.67 0 .369.314.668.701.668z"/></g><g><path fill="#fff" d="M9.706 6.432c.91 0 1.651.708 1.651 1.576 0 .346.294.627.656.627.363 0 .656-.28.656-.627 0-1.559-1.33-2.828-2.963-2.828-.362 0-.656.28-.656.626s.294.626.656.626z"/></g><g><path fill="#fff" d="M6.79 7.215a.604.604 0 0 0-.17.863.67.67 0 0 0 .905.162c.233-.153.78-.509.741-1.222-.024-.426-.427-1.035-.761-1.471-.488-.638-.91-1.022-1.248-1.14a1.506 1.506 0 0 0-.985-.008c-.698.225-1.205.63-1.466 1.174-.254.528-.248 1.136.017 1.757a11.586 11.586 0 0 0 2.606 3.814c1.114 1.05 2.457 1.886 3.99 2.483.332.129.66.193.976.193.303 0 .594-.06.865-.178.57-.249.994-.733 1.23-1.4.112-.32.11-.637-.007-.937-.126-.326-.528-.727-1.196-1.193-.457-.32-1.095-.704-1.543-.727-.745-.036-1.118.485-1.278.707a.604.604 0 0 0 .17.863.67.67 0 0 0 .904-.162.99.99 0 0 1 .134-.163c.365.112 1.407.842 1.594 1.122.005.018.006.045-.012.095-.082.232-.242.537-.538.666-.277.121-.593.047-.808-.036-1.374-.535-2.574-1.28-3.561-2.211a10.344 10.344 0 0 1-2.321-3.404c-.088-.206-.166-.507-.039-.772.136-.282.455-.435.698-.513a.185.185 0 0 1 .1-.012c.293.18 1.058 1.173 1.175 1.522-.02.021-.068.06-.171.128z"/></g></g></g></svg>